<?xml version="1.0" standalone="no"?>
<!DOCTYPE svg PUBLIC "-//W3C//DTD SVG 20010904//EN"
 "http://www.w3.org/TR/2001/REC-SVG-20010904/DTD/svg10.dtd">
<svg version="1.0" xmlns="http://www.w3.org/2000/svg"
 width="301.000000pt" height="102.000000pt" viewBox="0 0 301.000000 102.000000"
 preserveAspectRatio="xMidYMid meet">
<metadata>
Created by potrace 1.16, written by Peter Selinger 2001-2019
</metadata>
<g transform="translate(0.000000,102.000000) scale(0.100000,-0.100000)"
fill="#000000" stroke="none">
<path d="M70 901 l0 -49 273 -4 c304 -5 330 -9 387 -75 17 -19 72 -118 123
-219 50 -101 94 -184 97 -184 3 0 61 108 129 240 l123 241 52 -3 51 -3 3 -278
2 -277 65 0 65 0 0 330 0 330 -685 0 -685 0 0 -49z"/>
<path d="M2329 826 c-58 -20 -106 -54 -144 -100 -85 -104 -126 -284 -94 -413
36 -142 224 -190 330 -84 81 82 73 248 -15 306 -63 42 -166 40 -217 -2 -26
-22 -29 -23 -29 -6 0 10 13 45 29 78 34 73 112 148 170 166 40 12 47 22 35 53
-7 19 -17 19 -65 2z m22 -342 c36 -18 52 -63 47 -129 -5 -65 -32 -99 -89 -116
-31 -10 -43 -9 -75 7 -54 27 -77 63 -82 131 -4 54 -2 60 26 87 48 45 109 52
173 20z"/>
<path d="M1600 800 l0 -30 123 0 c117 0 121 -1 101 -18 -27 -21 -154 -218
-154 -237 0 -11 13 -15 50 -15 63 0 110 -19 139 -56 33 -42 26 -122 -14 -164
-46 -48 -144 -62 -207 -29 -19 10 -22 6 -32 -33 -6 -26 -4 -27 51 -38 134 -28
249 23 284 127 16 50 7 147 -17 181 -25 33 -98 72 -138 72 l-29 0 20 22 c32
36 153 221 153 235 0 10 -39 13 -165 13 l-165 0 0 -30z"/>
<path d="M2640 672 l0 -158 68 0 c112 1 166 -43 166 -135 0 -53 -19 -87 -67
-123 -28 -21 -107 -28 -159 -13 -23 6 -27 3 -36 -22 -12 -34 -8 -37 66 -47
128 -17 238 48 261 154 30 142 -32 234 -167 248 l-63 7 3 91 3 91 108 3 107 3
0 29 0 30 -145 0 -145 0 0 -158z"/>
<path d="M70 410 l0 -340 685 0 685 0 0 55 0 54 -117 3 -118 3 -5 221 -5 222
-115 -224 c-73 -142 -120 -224 -130 -224 -9 0 -43 54 -87 138 -70 131 -73 135
-73 96 0 -101 -65 -193 -154 -219 -36 -11 -101 -15 -233 -15 l-183 0 0 285 0
285 -75 0 -75 0 0 -340z"/>
<path d="M320 515 l0 -225 149 0 c169 0 191 8 211 78 16 61 13 255 -6 302 -25
62 -49 70 -214 70 l-140 0 0 -225z"/>
</g>
</svg>
