<!-- Placeholder compliance/security illustration. -->
<svg viewBox="0 0 520 420" xmlns="http://www.w3.org/2000/svg" role="img" aria-label="Compliance and security illustration">
  <defs>
    <filter id="soft2" x="-20%" y="-20%" width="140%" height="140%">
      <feDropShadow dx="0" dy="10" stdDeviation="14" flood-color="#0e2236" flood-opacity="0.18"/>
    </filter>
  </defs>
  <rect width="520" height="420" rx="24" fill="#eef4f9"/>
  <g filter="url(#soft2)">
    <path d="M260 50 380 90v90c0 90-50 140-120 190C190 320 140 270 140 180V90Z" fill="#ffffff"/>
  </g>
  <path d="M260 50 380 90v90c0 90-50 140-120 190C190 320 140 270 140 180V90Z" fill="none" stroke="#0f3d66" stroke-width="2"/>
  <path d="M205 195l38 38 72-86" stroke="#169c93" stroke-width="10" stroke-linecap="round" stroke-linejoin="round" fill="none"/>
  <g opacity="0.5" stroke="#0f3d66" stroke-width="1.2">
    <circle cx="60" cy="60" r="3" fill="#0f3d66"/>
    <circle cx="100" cy="40" r="3" fill="#0f3d66"/>
    <path d="M60 60 100 40"/>
    <circle cx="460" cy="360" r="3" fill="#169c93"/>
    <circle cx="420" cy="380" r="3" fill="#169c93"/>
    <path d="M460 360 420 380"/>
  </g>
</svg>
