<!-- Placeholder schematic EDC dashboard mockup. Replace with a real
     MainEDC screenshot once available. -->
<svg viewBox="0 0 640 420" xmlns="http://www.w3.org/2000/svg" role="img" aria-label="EDC dashboard mockup">
  <rect width="640" height="420" rx="20" fill="#f6f8fa"/>
  <rect x="24" y="24" width="592" height="372" rx="16" fill="#ffffff" stroke="#e1e7ed"/>
  <rect x="24" y="24" width="592" height="44" rx="16" fill="#0f3d66"/>
  <rect x="44" y="40" width="120" height="12" rx="6" fill="#ffffff" opacity="0.9"/>
  <rect x="486" y="38" width="110" height="16" rx="8" fill="#169c93"/>
  <rect x="24" y="68" width="150" height="328" fill="#f5f8fb"/>
  <g fill="#9fb6cc">
    <rect x="44" y="92" width="110" height="8" rx="4" fill="#0f3d66"/>
    <rect x="44" y="118" width="110" height="8" rx="4"/>
    <rect x="44" y="144" width="90" height="8" rx="4"/>
    <rect x="44" y="170" width="100" height="8" rx="4"/>
    <rect x="44" y="196" width="80" height="8" rx="4"/>
  </g>
  <g>
    <rect x="194" y="92" width="120" height="64" rx="10" fill="#e7eef6"/>
    <rect x="324" y="92" width="120" height="64" rx="10" fill="#e3f4f2"/>
    <rect x="454" y="92" width="142" height="64" rx="10" fill="#e7eef6"/>
    <rect x="210" y="110" width="50" height="10" rx="5" fill="#0f3d66"/>
    <rect x="210" y="128" width="70" height="8" rx="4" fill="#5fb8b1"/>
    <rect x="340" y="110" width="50" height="10" rx="5" fill="#169c93"/>
    <rect x="340" y="128" width="60" height="8" rx="4" fill="#7da7c9"/>
    <rect x="470" y="110" width="60" height="10" rx="5" fill="#0f3d66"/>
    <rect x="470" y="128" width="80" height="8" rx="4" fill="#5fb8b1"/>
  </g>
  <g>
    <rect x="194" y="176" width="402" height="32" rx="6" fill="#f5f8fb"/>
    <rect x="194" y="214" width="402" height="32" rx="6" fill="#ffffff"/>
    <rect x="194" y="252" width="402" height="32" rx="6" fill="#f5f8fb"/>
    <rect x="194" y="290" width="402" height="32" rx="6" fill="#ffffff"/>
    <rect x="194" y="328" width="402" height="32" rx="6" fill="#f5f8fb"/>
    <g fill="#3c5066">
      <rect x="210" y="188" width="110" height="8" rx="4"/>
      <rect x="210" y="226" width="140" height="8" rx="4"/>
      <rect x="210" y="264" width="90" height="8" rx="4"/>
      <rect x="210" y="302" width="120" height="8" rx="4"/>
      <rect x="210" y="340" width="100" height="8" rx="4"/>
    </g>
    <g>
      <rect x="540" y="184" width="44" height="16" rx="8" fill="#d8f0eb"/>
      <rect x="540" y="222" width="44" height="16" rx="8" fill="#fde6cf"/>
      <rect x="540" y="260" width="44" height="16" rx="8" fill="#d8f0eb"/>
      <rect x="540" y="298" width="44" height="16" rx="8" fill="#d8f0eb"/>
      <rect x="540" y="336" width="44" height="16" rx="8" fill="#fde6cf"/>
    </g>
  </g>
</svg>
