<!-- Placeholder illustration of clinical data flow. Replace with a generated
     image if you want a more photographic/abstract style (see prompts). -->
<svg viewBox="0 0 600 320" xmlns="http://www.w3.org/2000/svg" role="img" aria-label="Clinical data flow illustration">
  <rect width="600" height="320" rx="20" fill="#f6f8fa"/>
  <g font-family="Inter, Arial, sans-serif" font-size="11" font-weight="700" fill="#0e2236">
    <g>
      <rect x="30" y="130" width="110" height="60" rx="12" fill="#e7eef6" stroke="#0f3d66" stroke-width="1.4"/>
      <text x="85" y="164" text-anchor="middle">Site</text>
    </g>
    <g>
      <rect x="190" y="130" width="110" height="60" rx="12" fill="#e3f4f2" stroke="#169c93" stroke-width="1.4"/>
      <text x="245" y="164" text-anchor="middle">MainEDC</text>
    </g>
    <g>
      <rect x="350" y="130" width="110" height="60" rx="12" fill="#e7eef6" stroke="#0f3d66" stroke-width="1.4"/>
      <text x="405" y="158" text-anchor="middle">Monitoring</text>
      <text x="405" y="172" text-anchor="middle">&amp; queries</text>
    </g>
    <g>
      <rect x="470" y="40" width="100" height="56" rx="12" fill="#e3f4f2" stroke="#169c93" stroke-width="1.4"/>
      <text x="520" y="64" text-anchor="middle">Export</text>
      <text x="520" y="78" text-anchor="middle">(SDTM)</text>
    </g>
    <g>
      <rect x="470" y="224" width="100" height="56" rx="12" fill="#e7eef6" stroke="#0f3d66" stroke-width="1.4"/>
      <text x="520" y="248" text-anchor="middle">Audit</text>
      <text x="520" y="262" text-anchor="middle">trail</text>
    </g>
  </g>
  <g stroke="#9fb6cc" stroke-width="1.8" fill="none" marker-end="url(#arrow)">
    <path d="M140 160 190 160"/>
    <path d="M300 160 350 160"/>
    <path d="M460 150 470 100"/>
    <path d="M460 170 470 230"/>
  </g>
  <defs>
    <marker id="arrow" viewBox="0 0 10 10" refX="8" refY="5" markerWidth="6" markerHeight="6" orient="auto-start-reverse">
      <path d="M0 0 10 5 0 10z" fill="#9fb6cc"/>
    </marker>
  </defs>
</svg>
