<!-- Placeholder product visual. Replace with a real MainEDC product screenshot
     or a generated image (see audit-summary.md / README for an image prompt). -->
<svg viewBox="0 0 600 460" xmlns="http://www.w3.org/2000/svg" role="img" aria-label="MainEDC dashboard illustration">
  <defs>
    <linearGradient id="bg1" x1="0" y1="0" x2="1" y2="1">
      <stop offset="0" stop-color="#eef4f9"/>
      <stop offset="1" stop-color="#e3f4f2"/>
    </linearGradient>
    <filter id="soft" x="-20%" y="-20%" width="140%" height="140%">
      <feDropShadow dx="0" dy="10" stdDeviation="14" flood-color="#0e2236" flood-opacity="0.16"/>
    </filter>
  </defs>
  <rect width="600" height="460" rx="24" fill="url(#bg1)"/>

  <!-- node-link data pattern, low opacity -->
  <g opacity="0.18" stroke="#0f3d66" stroke-width="1.2">
    <circle cx="60" cy="60" r="3" fill="#0f3d66"/>
    <circle cx="120" cy="40" r="3" fill="#0f3d66"/>
    <circle cx="90" cy="100" r="3" fill="#0f3d66"/>
    <path d="M60 60 120 40 M60 60 90 100"/>
    <circle cx="540" cy="400" r="3" fill="#169c93"/>
    <circle cx="500" cy="430" r="3" fill="#169c93"/>
    <circle cx="560" cy="440" r="3" fill="#169c93"/>
    <path d="M540 400 500 430 M540 400 560 440"/>
  </g>

  <!-- dashboard card -->
  <g filter="url(#soft)">
    <rect x="56" y="48" width="488" height="360" rx="18" fill="#ffffff"/>
  </g>

  <!-- top bar -->
  <rect x="56" y="48" width="488" height="46" rx="18" fill="#0f3d66"/>
  <circle cx="80" cy="71" r="5" fill="#ffffff"/>
  <rect x="96" y="66" width="110" height="10" rx="5" fill="#ffffff" opacity="0.85"/>
  <rect x="430" y="62" width="86" height="18" rx="9" fill="#169c93"/>

  <!-- sidebar -->
  <rect x="56" y="94" width="120" height="314" fill="#f5f8fb"/>
  <rect x="76" y="118" width="80" height="8" rx="4" fill="#0f3d66"/>
  <rect x="76" y="146" width="80" height="8" rx="4" fill="#9fb6cc"/>
  <rect x="76" y="174" width="80" height="8" rx="4" fill="#9fb6cc"/>
  <rect x="76" y="202" width="80" height="8" rx="4" fill="#9fb6cc"/>
  <rect x="76" y="230" width="60" height="8" rx="4" fill="#9fb6cc"/>

  <!-- stat cards -->
  <rect x="196" y="116" width="108" height="64" rx="10" fill="#e7eef6"/>
  <rect x="312" y="116" width="108" height="64" rx="10" fill="#e3f4f2"/>
  <rect x="428" y="116" width="92" height="64" rx="10" fill="#e7eef6"/>
  <rect x="212" y="132" width="50" height="10" rx="5" fill="#0f3d66"/>
  <rect x="212" y="150" width="34" height="8" rx="4" fill="#5fb8b1"/>
  <rect x="328" y="132" width="50" height="10" rx="5" fill="#169c93"/>
  <rect x="328" y="150" width="40" height="8" rx="4" fill="#7da7c9"/>
  <rect x="444" y="132" width="44" height="10" rx="5" fill="#0f3d66"/>
  <rect x="444" y="150" width="30" height="8" rx="4" fill="#5fb8b1"/>

  <!-- table rows -->
  <g>
    <rect x="196" y="200" width="324" height="34" rx="6" fill="#f5f8fb"/>
    <rect x="196" y="242" width="324" height="34" rx="6" fill="#ffffff"/>
    <rect x="196" y="284" width="324" height="34" rx="6" fill="#f5f8fb"/>
    <rect x="196" y="326" width="324" height="34" rx="6" fill="#ffffff"/>
    <rect x="212" y="213" width="90" height="8" rx="4" fill="#3c5066"/>
    <rect x="212" y="255" width="120" height="8" rx="4" fill="#3c5066"/>
    <rect x="212" y="297" width="76" height="8" rx="4" fill="#3c5066"/>
    <rect x="212" y="339" width="100" height="8" rx="4" fill="#3c5066"/>
    <rect x="460" y="210" width="46" height="16" rx="8" fill="#d8f0eb"/>
    <rect x="460" y="252" width="46" height="16" rx="8" fill="#fde6cf"/>
    <rect x="460" y="294" width="46" height="16" rx="8" fill="#d8f0eb"/>
    <rect x="460" y="336" width="46" height="16" rx="8" fill="#d8f0eb"/>
  </g>
</svg>
